<svg width="24" height="24" viewBox="0 0 24 24" fill="none" xmlns="http://www.w3.org/2000/svg">
<path d="M3.61302 2.21022L3.70702 2.29322L21.707 20.2932C21.8864 20.4732 21.9905 20.7147 21.9983 20.9686C22.006 21.2226 21.9168 21.4699 21.7488 21.6605C21.5807 21.8511 21.3465 21.9705 21.0935 21.9946C20.8406 22.0187 20.588 21.9456 20.387 21.7902L20.293 21.7072L17.225 18.6392C16.6133 18.8435 15.9763 18.9623 15.332 18.9922L15.001 19.0002H9.40502L10.709 20.3032L10.786 20.3902C10.9362 20.5819 11.0112 20.8217 10.9971 21.0648C10.983 21.3079 10.8807 21.5374 10.7094 21.7104C10.5381 21.8835 10.3096 21.988 10.0667 22.0046C9.82377 22.0211 9.58318 21.9484 9.39002 21.8002L9.29502 21.7172L6.29002 18.7122L6.21302 18.6252C6.07463 18.45 5.99885 18.2335 5.99777 18.0103C5.99668 17.787 6.07034 17.5698 6.20702 17.3932L6.29002 17.2982L9.29502 14.2932L9.38302 14.2152C9.55823 14.0768 9.77472 14.0011 9.99799 14C10.2213 13.9989 10.4385 14.0725 10.615 14.2092L10.71 14.2932L10.787 14.3802C10.9254 14.5554 11.0012 14.7719 11.0023 14.9952C11.0034 15.2185 10.9297 15.4357 10.793 15.6122L10.71 15.7072L9.41602 16.9992H15.002C15.1894 16.9992 15.3737 16.9892 15.555 16.9692L6.34802 7.76122C5.62927 8.21092 5.03667 8.836 4.62593 9.5777C4.21519 10.3194 3.99981 11.1534 4.00002 12.0012C4.00002 12.9192 4.24802 13.7802 4.68002 14.5202L4.81502 14.7382C4.96938 14.954 5.03171 15.2222 4.98829 15.4839C4.94488 15.7456 4.79928 15.9794 4.58352 16.1337C4.36777 16.2881 4.09954 16.3504 3.83783 16.307C3.57612 16.2636 3.34238 16.118 3.18802 15.9022C2.41068 14.7496 1.99685 13.3904 2.00002 12.0002C1.99927 10.8908 2.26262 9.79709 2.76828 8.80958C3.27395 7.82207 4.00741 6.96911 4.90802 6.32122L2.29302 3.70722C2.11177 3.52768 2.00599 3.28565 1.99734 3.03068C1.98869 2.7757 2.07782 2.52706 2.24649 2.33564C2.41516 2.14423 2.65061 2.02452 2.90465 2.00102C3.15869 1.97752 3.4121 2.053 3.61302 2.21022ZM20 7.68122C20.32 7.68122 20.603 7.83122 20.787 8.06322L20.84 8.13822L20.857 8.16522C21.6054 9.30439 22.0029 10.6382 22 12.0012C22 13.9782 21.18 15.7632 19.862 17.0362L18.447 15.6222C18.9376 15.1553 19.3283 14.5936 19.5952 13.9711C19.8622 13.3487 19.9999 12.6785 20 12.0012C20 11.0752 19.748 10.2082 19.31 9.46422L19.172 9.24422C19.0701 9.09384 19.0111 8.91854 19.0013 8.73715C18.9915 8.55575 19.0313 8.37511 19.1164 8.21463C19.2015 8.05415 19.3288 7.91989 19.4845 7.82627C19.6401 7.73264 19.8184 7.68319 20 7.68322M14.625 2.21322L14.712 2.29022L17.718 5.29522C17.8912 5.46857 17.9947 5.69946 18.0089 5.94408C18.0231 6.1887 17.947 6.43001 17.795 6.62222L17.717 6.70922L14.712 9.71522C14.5317 9.89603 14.2891 10.001 14.0339 10.0087C13.7786 10.0163 13.5301 9.92603 13.3393 9.75633C13.1485 9.58663 13.0299 9.35038 13.0077 9.096C12.9855 8.84162 13.0615 8.58839 13.22 8.38822L13.298 8.30022L14.595 7.00222H9.82602L7.91102 5.08522C8.18836 5.04189 8.47102 5.01522 8.75902 5.00522L8.99902 5.00122H14.597L13.298 3.70322C13.1247 3.53001 13.021 3.29918 13.0066 3.05456C12.9922 2.80994 13.0682 2.56855 13.22 2.37622L13.298 2.28922C13.4712 2.11589 13.7021 2.0122 13.9467 1.99782C14.1913 1.98344 14.4327 2.05938 14.625 2.21122" fill="black"/>
</svg>
