<svg width="24" height="24" viewBox="0 0 24 24" fill="none" xmlns="http://www.w3.org/2000/svg">
<path d="M14.712 2.28922L14.625 2.21122C14.4327 2.05938 14.1913 1.98344 13.9467 1.99782C13.7021 2.0122 13.4712 2.11589 13.298 2.28922L13.22 2.37622C13.0685 2.56848 12.9927 2.80965 13.0071 3.05404C13.0214 3.29844 13.125 3.52906 13.298 3.70222L14.597 4.99922H8.99901L8.75902 5.00322C6.94606 5.06493 5.22793 5.8283 3.96697 7.13236C2.70601 8.43642 2.00078 10.1792 2.00002 11.9932C1.99712 13.3826 2.41133 14.7409 3.18901 15.8922C3.34324 16.1078 3.5768 16.2534 3.83832 16.2968C4.09984 16.3402 4.36789 16.2779 4.58351 16.1237C4.79914 15.9695 4.94466 15.7359 4.98808 15.4744C5.03149 15.2129 4.96924 14.9448 4.81502 14.7292L4.68001 14.5112C4.23739 13.7517 4.00297 12.8888 4.00041 12.0097C3.99786 11.1307 4.22726 10.2664 4.66547 9.50435C5.10367 8.74226 5.73517 8.10926 6.49622 7.66924C7.25726 7.22922 8.12092 6.99776 9.00002 6.99822H14.595L13.298 8.29522L13.22 8.38222C13.0576 8.58191 12.9786 8.83656 12.9993 9.09309C13.0201 9.34963 13.1391 9.58825 13.3315 9.75922C13.5238 9.9302 13.7748 10.0203 14.032 10.0108C14.2892 10.0013 14.5328 9.89292 14.712 9.70822L17.718 6.70522L17.795 6.61822C17.9466 6.42597 18.0224 6.18479 18.008 5.9404C17.9936 5.69601 17.8901 5.46538 17.717 5.29222L14.712 2.28922ZM20.787 8.06022C20.659 7.89588 20.4827 7.77568 20.2829 7.71647C20.0832 7.65725 19.8699 7.66197 19.673 7.72997C19.476 7.79797 19.3053 7.92584 19.1846 8.09569C19.0639 8.26554 18.9994 8.46887 19 8.67722C19 8.88622 19.064 9.07922 19.172 9.23822C19.6692 9.99142 19.9532 10.8652 19.9937 11.7668C20.0343 12.6684 19.8298 13.5642 19.4022 14.3589C18.9746 15.1537 18.3397 15.8178 17.5649 16.2808C16.7902 16.7437 15.9045 16.9882 15.002 16.9882H9.41401L10.708 15.6982L10.791 15.6022C10.9272 15.4258 11.0006 15.209 10.9995 14.9862C10.9984 14.7634 10.9229 14.5473 10.785 14.3722L10.708 14.2842L10.613 14.2002C10.4365 14.0635 10.2193 13.9899 9.99598 13.991C9.77271 13.9921 9.55622 14.0678 9.38101 14.2062L9.29302 14.2842L6.28802 17.2872L6.20502 17.3822C6.06858 17.5587 5.99506 17.7757 5.99615 17.9988C5.99724 18.2218 6.07287 18.4381 6.21102 18.6132L6.28802 18.7002L9.29302 21.7032L9.38801 21.7872C9.58108 21.9363 9.82201 22.0098 10.0654 21.9936C10.3088 21.9775 10.538 21.8729 10.7097 21.6996C10.8814 21.5263 10.9838 21.2963 10.9977 21.0527C11.0116 20.8091 10.9359 20.5689 10.785 20.3772L10.708 20.2902L9.40402 18.9872H15L15.24 18.9842C16.4908 18.9413 17.7071 18.5636 18.7622 17.8907C19.8174 17.2177 20.6727 16.2741 21.2391 15.1581C21.8055 14.0422 22.0623 12.7947 21.9826 11.5458C21.9029 10.2968 21.4897 9.09214 20.786 8.05722L20.787 8.06022Z" fill="black"/>
</svg>
